<?xml version="1.0" encoding="iso-8859-1"?>
<!-- Generator: Adobe Illustrator 19.0.0, SVG Export Plug-In . SVG Version: 6.00 Build 0)  -->
<svg xmlns="http://www.w3.org/2000/svg" xmlns:xlink="http://www.w3.org/1999/xlink" version="1.1" id="Layer_1" x="0px" y="0px" viewBox="0 0 512 512" style="enable-background:new 0 0 512 512;" xml:space="preserve" width="512px" height="512px">
<g>
	<g>
		<path d="M160.942,168.17h-16.354v-27.256c0-9.032-7.322-16.354-16.354-16.354s-16.354,7.322-16.354,16.354v43.61    c0,9.032,7.322,16.354,16.354,16.354h32.707c9.032,0,16.354-7.322,16.354-16.354S169.974,168.17,160.942,168.17z" fill="#343434"/>
	</g>
</g>
<g>
	<g>
		<path d="M508.062,273.547l-71.547-83.45c-3.107-3.624-7.643-5.71-12.417-5.71l-55.192,0.004V326.08    c0,9.032-7.322,16.354-16.354,16.354H119.513v49.061c0,9.032,7.322,16.354,16.354,16.354h47.673    c7.081,24.091,29.377,41.735,55.73,41.735s48.649-17.644,55.73-41.735h43.558c7.081,24.091,29.377,41.735,55.73,41.735    c26.353,0,48.649-17.644,55.73-41.735h45.629c9.032,0,16.354-7.322,16.354-16.354V284.191    C512,280.287,510.603,276.51,508.062,273.547z M239.27,416.876c-13.995,0-25.382-11.385-25.382-25.38    c0-13.997,11.386-25.384,25.382-25.384s25.382,11.388,25.382,25.384C264.652,405.491,253.265,416.876,239.27,416.876z     M419.671,391.509c-0.008,13.989-11.391,25.368-25.382,25.368c-13.995,0-25.382-11.385-25.382-25.38    c0-13.997,11.386-25.384,25.382-25.384c13.99,0,25.373,11.38,25.382,25.369c0,0.004-0.001,0.009-0.001,0.013    C419.67,391.499,419.671,391.504,419.671,391.509z" fill="#343434"/>
	</g>
</g>
<g>
	<g>
		<path d="M86.945,324.075H49.063c-9.032,0-16.355,7.321-16.354,16.354c0,9.03,7.322,16.353,16.354,16.353h37.883L86.945,324.075z" fill="#343434"/>
	</g>
</g>
<g>
	<g>
		<path d="M249.124,160.542c0.004,0.028,0.007,0.057,0.011,0.085c-3.371-23.682-14.144-46.503-32.321-64.682    c-21.622-21.622-50.369-33.529-80.946-33.529c-30.578,0-59.325,11.908-80.946,33.529c-21.622,21.622-33.529,50.368-33.529,80.946    c0,30.578,11.908,59.324,33.529,80.946c0.278,0.278,0.563,0.547,0.841,0.822l-39.408-0.001C7.324,258.657,0,265.981,0,275.011    c0.001,9.032,7.323,16.355,16.354,16.355l103.16,0.001v18.36h216.685V160.548L249.124,160.542z M193.686,234.71    c-15.444,15.444-35.978,23.949-57.819,23.949c-21.841,0-42.375-8.505-57.819-23.949c-15.444-15.444-23.949-35.978-23.949-57.819    c0-21.841,8.505-42.374,23.949-57.819c15.443-15.444,35.978-23.949,57.819-23.949c21.841,0,42.374,8.505,57.819,23.949    C225.566,150.955,225.566,202.829,193.686,234.71z" fill="#343434"/>
	</g>
</g>
<g>
</g>
<g>
</g>
<g>
</g>
<g>
</g>
<g>
</g>
<g>
</g>
<g>
</g>
<g>
</g>
<g>
</g>
<g>
</g>
<g>
</g>
<g>
</g>
<g>
</g>
<g>
</g>
<g>
</g>
</svg>
